<mxfile host="www.draw.io" modified="2019-12-20T03:53:36.745Z" agent="Mozilla/5.0 (Windows NT 6.2; Win64; x64) AppleWebKit/537.36 (KHTML, like Gecko) Chrome/79.0.3945.79 Safari/537.36" etag="D4phG2TupfxoCvvVFlWb" version="12.4.3" type="github" pages="1">
  <diagram name="Page-1" id="13e1069c-82ec-6db2-03f1-153e76fe0fe0">
    <mxGraphModel dx="773" dy="378" grid="1" gridSize="10" guides="1" tooltips="1" connect="1" arrows="1" fold="1" page="1" pageScale="1" pageWidth="1100" pageHeight="850" background="#ffffff" math="0" shadow="0">
      <root>
        <mxCell id="0"/>
        <mxCell id="1" parent="0"/>
        <mxCell id="7baba1c4bc27f4b0-2" value=":网易云信&lt;br&gt;(imserver)" style="shape=umlLifeline;perimeter=lifelinePerimeter;whiteSpace=wrap;html=1;container=1;collapsible=0;recursiveResize=0;outlineConnect=0;rounded=1;shadow=0;comic=0;labelBackgroundColor=none;strokeWidth=1;fontFamily=Verdana;fontSize=12;align=center;" parent="1" vertex="1">
          <mxGeometry x="240" y="80" width="100" height="440" as="geometry"/>
        </mxCell>
        <mxCell id="7baba1c4bc27f4b0-10" value="" style="html=1;points=[];perimeter=orthogonalPerimeter;rounded=0;shadow=0;comic=0;labelBackgroundColor=none;strokeWidth=1;fontFamily=Verdana;fontSize=12;align=center;" parent="7baba1c4bc27f4b0-2" vertex="1">
          <mxGeometry x="45" y="169" width="10" height="91" as="geometry"/>
        </mxCell>
        <mxCell id="7baba1c4bc27f4b0-3" value=":xp-sales-im" style="shape=umlLifeline;perimeter=lifelinePerimeter;whiteSpace=wrap;html=1;container=1;collapsible=0;recursiveResize=0;outlineConnect=0;rounded=1;shadow=0;comic=0;labelBackgroundColor=none;strokeWidth=1;fontFamily=Verdana;fontSize=12;align=center;" parent="1" vertex="1">
          <mxGeometry x="400" y="80" width="100" height="440" as="geometry"/>
        </mxCell>
        <mxCell id="7baba1c4bc27f4b0-13" value="" style="html=1;points=[];perimeter=orthogonalPerimeter;rounded=0;shadow=0;comic=0;labelBackgroundColor=none;strokeWidth=1;fontFamily=Verdana;fontSize=12;align=center;" parent="7baba1c4bc27f4b0-3" vertex="1">
          <mxGeometry x="45" y="110" width="10" height="210" as="geometry"/>
        </mxCell>
        <mxCell id="7baba1c4bc27f4b0-4" value=":xp-vsn-im" style="shape=umlLifeline;perimeter=lifelinePerimeter;whiteSpace=wrap;html=1;container=1;collapsible=0;recursiveResize=0;outlineConnect=0;rounded=1;shadow=0;comic=0;labelBackgroundColor=none;strokeWidth=1;fontFamily=Verdana;fontSize=12;align=center;" parent="1" vertex="1">
          <mxGeometry x="540" y="80" width="100" height="440" as="geometry"/>
        </mxCell>
        <mxCell id="7baba1c4bc27f4b0-5" value=":webServer&lt;br&gt;(云信认证服务)" style="shape=umlLifeline;perimeter=lifelinePerimeter;whiteSpace=wrap;html=1;container=1;collapsible=0;recursiveResize=0;outlineConnect=0;rounded=1;shadow=0;comic=0;labelBackgroundColor=none;strokeWidth=1;fontFamily=Verdana;fontSize=12;align=center;" parent="1" vertex="1">
          <mxGeometry x="680" y="80" width="100" height="440" as="geometry"/>
        </mxCell>
        <mxCell id="7baba1c4bc27f4b0-8" value=":社区(RN)" style="shape=umlLifeline;perimeter=lifelinePerimeter;whiteSpace=wrap;html=1;container=1;collapsible=0;recursiveResize=0;outlineConnect=0;rounded=1;shadow=0;comic=0;labelBackgroundColor=none;strokeWidth=1;fontFamily=Verdana;fontSize=12;align=center;" parent="1" vertex="1">
          <mxGeometry x="100" y="80" width="100" height="440" as="geometry"/>
        </mxCell>
        <mxCell id="7baba1c4bc27f4b0-9" value="" style="html=1;points=[];perimeter=orthogonalPerimeter;rounded=0;shadow=0;comic=0;labelBackgroundColor=none;strokeWidth=1;fontFamily=Verdana;fontSize=12;align=center;" parent="7baba1c4bc27f4b0-8" vertex="1">
          <mxGeometry x="45" y="100" width="10" height="240" as="geometry"/>
        </mxCell>
        <mxCell id="7baba1c4bc27f4b0-16" value="" style="html=1;points=[];perimeter=orthogonalPerimeter;rounded=0;shadow=0;comic=0;labelBackgroundColor=none;strokeWidth=1;fontFamily=Verdana;fontSize=12;align=center;" parent="1" vertex="1">
          <mxGeometry x="585" y="140" width="10" height="260" as="geometry"/>
        </mxCell>
        <mxCell id="7baba1c4bc27f4b0-19" value="" style="html=1;points=[];perimeter=orthogonalPerimeter;rounded=0;shadow=0;comic=0;labelBackgroundColor=none;strokeWidth=1;fontFamily=Verdana;fontSize=12;align=center;" parent="1" vertex="1">
          <mxGeometry x="725" y="209" width="10" height="40" as="geometry"/>
        </mxCell>
        <mxCell id="7baba1c4bc27f4b0-20" value="导入accid" style="html=1;verticalAlign=bottom;endArrow=block;entryX=0;entryY=0;labelBackgroundColor=none;fontFamily=Verdana;fontSize=12;edgeStyle=elbowEdgeStyle;elbow=vertical;" parent="1" source="7baba1c4bc27f4b0-16" target="7baba1c4bc27f4b0-19" edge="1">
          <mxGeometry relative="1" as="geometry">
            <mxPoint x="650" y="230" as="sourcePoint"/>
          </mxGeometry>
        </mxCell>
        <mxCell id="7baba1c4bc27f4b0-11" value="account:token" style="html=1;verticalAlign=bottom;endArrow=block;labelBackgroundColor=none;fontFamily=Verdana;fontSize=12;edgeStyle=elbowEdgeStyle;elbow=vertical;" parent="1" edge="1">
          <mxGeometry relative="1" as="geometry">
            <mxPoint x="460" y="208" as="sourcePoint"/>
            <mxPoint x="585" y="208" as="targetPoint"/>
          </mxGeometry>
        </mxCell>
        <mxCell id="aBMowUxyMTST54FKezVJ-3" value="返回uid对应的token" style="html=1;verticalAlign=bottom;endArrow=open;dashed=1;endSize=8;labelBackgroundColor=none;fontFamily=Verdana;fontSize=12;edgeStyle=elbowEdgeStyle;elbow=vertical;" parent="1" edge="1">
          <mxGeometry relative="1" as="geometry">
            <mxPoint x="595" y="234" as="targetPoint"/>
            <Array as="points">
              <mxPoint x="670" y="234"/>
              <mxPoint x="700" y="234"/>
            </Array>
            <mxPoint x="725" y="234" as="sourcePoint"/>
          </mxGeometry>
        </mxCell>
        <mxCell id="_tAtlndqi4DHkHifaJOw-1" value="" style="endArrow=classic;html=1;" edge="1" parent="1" target="7baba1c4bc27f4b0-13">
          <mxGeometry width="50" height="50" relative="1" as="geometry">
            <mxPoint x="160" y="210" as="sourcePoint"/>
            <mxPoint x="440" y="210" as="targetPoint"/>
          </mxGeometry>
        </mxCell>
        <mxCell id="_tAtlndqi4DHkHifaJOw-2" value="获取云信登录token" style="text;html=1;strokeColor=none;fillColor=none;align=center;verticalAlign=middle;whiteSpace=wrap;rounded=0;" vertex="1" parent="1">
          <mxGeometry x="240" y="189" width="100" height="20" as="geometry"/>
        </mxCell>
        <mxCell id="_tAtlndqi4DHkHifaJOw-4" value="返回uid对应的token" style="html=1;verticalAlign=bottom;endArrow=open;dashed=1;endSize=8;labelBackgroundColor=none;fontFamily=Verdana;fontSize=12;edgeStyle=elbowEdgeStyle;elbow=vertical;" edge="1" parent="1">
          <mxGeometry relative="1" as="geometry">
            <mxPoint x="457" y="236" as="targetPoint"/>
            <Array as="points">
              <mxPoint x="535" y="236"/>
              <mxPoint x="565" y="236"/>
            </Array>
            <mxPoint x="587" y="236" as="sourcePoint"/>
          </mxGeometry>
        </mxCell>
        <mxCell id="_tAtlndqi4DHkHifaJOw-5" value="返回uid对应的token" style="html=1;verticalAlign=bottom;endArrow=open;dashed=1;endSize=8;labelBackgroundColor=none;fontFamily=Verdana;fontSize=12;edgeStyle=elbowEdgeStyle;elbow=vertical;" edge="1" parent="1">
          <mxGeometry relative="1" as="geometry">
            <mxPoint x="160" y="240" as="targetPoint"/>
            <Array as="points">
              <mxPoint x="395" y="240"/>
              <mxPoint x="425" y="240"/>
            </Array>
            <mxPoint x="450" y="240" as="sourcePoint"/>
          </mxGeometry>
        </mxCell>
        <mxCell id="_tAtlndqi4DHkHifaJOw-7" value="" style="endArrow=classic;html=1;exitX=0.933;exitY=0.239;exitDx=0;exitDy=0;exitPerimeter=0;entryX=-0.4;entryY=0.326;entryDx=0;entryDy=0;entryPerimeter=0;" edge="1" parent="1" target="7baba1c4bc27f4b0-10">
          <mxGeometry width="50" height="50" relative="1" as="geometry">
            <mxPoint x="154.33000000000004" y="279.15999999999997" as="sourcePoint"/>
            <mxPoint x="280" y="278" as="targetPoint"/>
          </mxGeometry>
        </mxCell>
        <mxCell id="_tAtlndqi4DHkHifaJOw-10" value="sdk带token认证" style="text;html=1;strokeColor=none;fillColor=none;align=center;verticalAlign=middle;whiteSpace=wrap;rounded=0;" vertex="1" parent="1">
          <mxGeometry x="190" y="251" width="60" height="20" as="geometry"/>
        </mxCell>
        <mxCell id="_tAtlndqi4DHkHifaJOw-11" value="" style="endArrow=classic;html=1;exitX=0.067;exitY=0.792;exitDx=0;exitDy=0;exitPerimeter=0;" edge="1" parent="1" source="7baba1c4bc27f4b0-10" target="7baba1c4bc27f4b0-9">
          <mxGeometry width="50" height="50" relative="1" as="geometry">
            <mxPoint x="190" y="420" as="sourcePoint"/>
            <mxPoint x="200" y="380" as="targetPoint"/>
          </mxGeometry>
        </mxCell>
        <mxCell id="_tAtlndqi4DHkHifaJOw-12" value="认证成功,调用sdk进行im信息服务" style="text;html=1;strokeColor=none;fillColor=none;align=center;verticalAlign=middle;whiteSpace=wrap;rounded=0;" vertex="1" parent="1">
          <mxGeometry x="180" y="300" width="100" height="20" as="geometry"/>
        </mxCell>
      </root>
    </mxGraphModel>
  </diagram>
</mxfile>
